<svg xmlns="http://www.w3.org/2000/svg" width="1907" height="917" viewBox="0 0 1907 917" fill="none"><g clip-path="url(#clip0_720_1641)"><mask id="mask0_720_1641" style="mask-type:luminance" maskUnits="userSpaceOnUse" x="0" y="-1490" width="1921" height="8574"><path d="M1920.05 -1490H0.0546875V7084H1920.05V-1490Z" fill="white"></path></mask><g mask="url(#mask0_720_1641)"><g opacity="0.706"><path d="M1762.49 1154.32C2078.27 1193.1 2358.21 1029.55 2387.74 789.025C2417.27 548.503 2185.22 322.089 1869.44 283.315C1553.65 244.542 1273.72 408.091 1244.18 648.614C1214.65 889.136 1446.7 1115.55 1762.49 1154.32Z" fill="url(#paint0_radial_720_1641)"></path><path d="M-110.356 1493.31C256.957 1538.41 596.096 1238.01 647.133 822.352C698.17 406.69 441.778 33.1679 74.4651 -11.9324C-292.848 -57.0327 -631.987 243.367 -683.024 659.029C-734.061 1074.69 -477.669 1448.21 -110.356 1493.31Z" fill="url(#paint1_radial_720_1641)"></path><path d="M1907.71 -84.7507C2202.36 -169.239 2354.18 -541.26 2246.81 -915.683C2139.45 -1290.11 1813.56 -1525.15 1518.91 -1440.66C1224.27 -1356.17 1072.45 -984.149 1179.81 -609.726C1287.18 -235.302 1613.07 -0.262876 1907.71 -84.7507Z" fill="url(#paint2_radial_720_1641)"></path></g></g></g><defs><radialGradient id="paint0_radial_720_1641" cx="0" cy="0" r="1" gradientUnits="userSpaceOnUse" gradientTransform="translate(1815.96 718.819) rotate(7) scale(576.073 438.775)"><stop stop-color="#FFF3EF"></stop><stop offset="1" stop-color="#FFF3EF" stop-opacity="0"></stop></radialGradient><radialGradient id="paint1_radial_720_1641" cx="0" cy="0" r="1" gradientUnits="userSpaceOnUse" gradientTransform="translate(-17.9454 740.691) rotate(7) scale(670.073 758.275)"><stop stop-color="#EFF9FF"></stop><stop offset="1" stop-color="#EFF9FF" stop-opacity="0"></stop></radialGradient><radialGradient id="paint2_radial_720_1641" cx="0" cy="0" r="1" gradientUnits="userSpaceOnUse" gradientTransform="translate(1713.31 -762.705) rotate(-16) scale(555 705.275)"><stop stop-color="#FCEFFF"></stop><stop offset="1" stop-color="#FCEFFF" stop-opacity="0"></stop></radialGradient><clipPath id="clip0_720_1641"><rect width="1907" height="917" fill="white"></rect></clipPath></defs></svg>