<svg xmlns="http://www.w3.org/2000/svg" width="1907" height="1250" viewBox="0 0 1907 1250" fill="none"><g clip-path="url(#clip0_720_1640)"><mask id="mask0_720_1640" style="mask-type:luminance" maskUnits="userSpaceOnUse" x="0" y="-6091" width="1921" height="8574"><path d="M1920.05 -6091H0.0546875V2483H1920.05V-6091Z" fill="white"></path></mask><g mask="url(#mask0_720_1640)"><g opacity="0.706"><path d="M-158.171 831.519C157.614 870.293 437.548 706.743 467.081 466.22C496.613 225.698 264.56 -0.716169 -51.2249 -39.4897C-367.01 -78.2632 -646.945 85.2867 -676.477 325.809C-706.01 566.332 -473.956 792.746 -158.171 831.519Z" fill="url(#paint0_radial_720_1640)"></path><path d="M1676.34 1095.91C1926.61 1065.18 2097.43 779.074 2057.87 456.875C2018.31 134.675 1783.35 -101.607 1533.07 -70.8766C1282.79 -40.1463 1111.97 245.96 1151.53 568.159C1191.1 890.359 1426.06 1126.64 1676.34 1095.91Z" fill="url(#paint1_radial_720_1640)"></path><path d="M1515.45 1995.98C1822.19 2033.64 2105.41 1782.76 2148.03 1435.62C2190.66 1088.47 1976.55 776.53 1669.81 738.867C1363.07 701.204 1079.85 952.085 1037.23 1299.23C994.606 1646.37 1208.71 1958.31 1515.45 1995.98Z" fill="url(#paint2_radial_720_1640)"></path><path d="M-467.451 1117.55C-490.9 1339.75 -232.92 1549.12 108.763 1585.17C450.447 1621.23 746.445 1470.33 769.894 1248.12C793.342 1025.92 535.363 816.551 193.679 780.494C-148.004 744.437 -444.002 895.341 -467.451 1117.55Z" fill="url(#paint3_radial_720_1640)"></path></g></g></g><defs><radialGradient id="paint0_radial_720_1640" cx="0" cy="0" r="1" gradientUnits="userSpaceOnUse" gradientTransform="translate(-104.698 396.015) rotate(7) scale(576.073 438.775)"><stop stop-color="#FFF3EF"></stop><stop offset="1" stop-color="#FFF3EF" stop-opacity="0"></stop></radialGradient><radialGradient id="paint1_radial_720_1640" cx="0" cy="0" r="1" gradientUnits="userSpaceOnUse" gradientTransform="translate(1604.7 512.517) rotate(-7) scale(456.573 587.775)"><stop stop-color="#FFFBEF"></stop><stop offset="1" stop-color="#FFFBEF" stop-opacity="0"></stop></radialGradient><radialGradient id="paint2_radial_720_1640" cx="0" cy="0" r="1" gradientUnits="userSpaceOnUse" gradientTransform="translate(1592.63 1367.42) rotate(7) scale(559.573 633.275)"><stop stop-color="#EFF9FF"></stop><stop offset="1" stop-color="#EFF9FF" stop-opacity="0"></stop></radialGradient><radialGradient id="paint3_radial_720_1640" cx="0" cy="0" r="1" gradientUnits="userSpaceOnUse" gradientTransform="translate(151.221 1182.83) rotate(96.024) scale(404.574 622.107)"><stop stop-color="#FCEFFF"></stop><stop offset="1" stop-color="#FCEFFF" stop-opacity="0"></stop></radialGradient><clipPath id="clip0_720_1640"><rect width="1907" height="1250" fill="white"></rect></clipPath></defs></svg>